<svg xmlns="http://www.w3.org/2000/svg" viewBox="0 0 238.407 211.523">
  <g id="Group_49" data-name="Group 49" transform="translate(-1750.3 6324.206)">
    <path id="Path_121" data-name="Path 121" d="M5610.845,198.764a29.884,29.884,0,0,0-47.684-29.162A52.845,52.845,0,0,0,5460.9,188.317c0,.052,0,.1,0,.156-1.135-.1-2.28-.156-3.439-.156a40.6,40.6,0,0,0,0,81.195h152.32a35.382,35.382,0,0,0,1.062-70.748Z" transform="translate(-3661.514 -6454.633)" fill="none" stroke="#fff" stroke-linecap="round" stroke-linejoin="round" stroke-width="10.104"/>
    <g id="Group_22" data-name="Group 22" transform="translate(-131.242 -3435.879)">
      <line id="Line_186" data-name="Line 186" x2="89.1" transform="translate(1932.4 -2717.121)" fill="none" stroke="#fff" stroke-linecap="round" stroke-width="10"/>
      <line id="Line_185" data-name="Line 185" x2="89.1" transform="translate(1932.4 -2688.121)" fill="none" stroke="#fff" stroke-linecap="round" stroke-width="10"/>
    </g>
    <g id="Group_21" data-name="Group 21" transform="translate(-131.242 -3436.211)">
      <line id="Line_187" data-name="Line 187" y2="45.767" transform="translate(2065.801 -2725.789)" fill="none" stroke="#fff" stroke-linecap="round" stroke-linejoin="round" stroke-width="7.1"/>
      <line id="Line_188" data-name="Line 188" x2="38.874" y2="24.155" transform="translate(2046.364 -2714.983)" fill="none" stroke="#fff" stroke-linecap="round" stroke-linejoin="round" stroke-width="7.1"/>
      <line id="Line_189" data-name="Line 189" y1="24.155" x2="38.874" transform="translate(2046.364 -2714.983)" fill="none" stroke="#fff" stroke-linecap="round" stroke-linejoin="round" stroke-width="7.1"/>
    </g>
  </g>
</svg>
