<svg xmlns="http://www.w3.org/2000/svg" viewBox="0 0 310.612 222.474">
  <g id="Group_72" data-name="Group 72" transform="translate(-1670.736 6725.375)">
    <g id="Group_20" data-name="Group 20" transform="translate(-1195.995 -4804.851)">
      <path id="Path_43" data-name="Path 43" d="M1730.139,538.457a47.7,47.7,0,0,0-66.955,67.927" transform="translate(1275 -2388.004)" fill="none" stroke="#000" stroke-linecap="round" stroke-linejoin="round" stroke-width="10.104"/>
      <line id="Line_103" data-name="Line 103" y1="27.016" transform="translate(2972.372 -1915.472)" fill="none" stroke="#000" stroke-linecap="round" stroke-linejoin="round" stroke-width="10.104"/>
      <line id="Line_104" data-name="Line 104" y1="19.103" x2="19.103" transform="translate(3024.396 -1886.01)" fill="none" stroke="#000" stroke-linecap="round" stroke-linejoin="round" stroke-width="10.104"/>
      <line id="Line_105" data-name="Line 105" x1="19.103" y2="19.103" transform="translate(2901.245 -1762.859)" fill="none" stroke="#000" stroke-linecap="round" stroke-linejoin="round" stroke-width="10.104"/>
      <line id="Line_106" data-name="Line 106" x1="27.016" transform="translate(2871.783 -1814.883)" fill="none" stroke="#000" stroke-linecap="round" stroke-linejoin="round" stroke-width="10.104"/>
      <line id="Line_107" data-name="Line 107" x1="19.103" y1="19.103" transform="translate(2901.245 -1886.01)" fill="none" stroke="#000" stroke-linecap="round" stroke-linejoin="round" stroke-width="10.104"/>
      <path id="Path_44" data-name="Path 44" d="M1863.758,615.787a29.191,29.191,0,0,0-28.694-34.618,29.067,29.067,0,0,0-17.889,6.129,51.625,51.625,0,0,0-99.9,18.283c0,.051,0,.1,0,.152-1.109-.093-2.227-.152-3.359-.152a39.66,39.66,0,1,0,0,79.321h148.8a34.565,34.565,0,0,0,1.038-69.115Z" transform="translate(1275 -2388.004)" fill="none" stroke="#000" stroke-linecap="round" stroke-linejoin="round" stroke-width="10.104"/>
    </g>
  </g>
</svg>
