<svg xmlns="http://www.w3.org/2000/svg" viewBox="0 0 304.725 247.5">
  <g id="Group_65" data-name="Group 65" transform="translate(-2039.377 3885.454)">
    <g id="Group_43" data-name="Group 43" transform="translate(-3815.971 -1913.074)">
      <path id="Path_72" data-name="Path 72" d="M4846.327,627.867a33.689,33.689,0,0,0,1.011-67.362,28.454,28.454,0,0,0-45.4-27.766,50.316,50.316,0,0,0-97.368,17.82c0,.049,0,.1,0,.148-1.08-.091-2.17-.148-3.274-.148a38.654,38.654,0,0,0,0,77.308" transform="translate(1275 -2388.004)" fill="none" stroke="#000" stroke-linecap="round" stroke-linejoin="round" stroke-width="10.104"/>
      <line id="Line_125" data-name="Line 125" x1="28.946" y2="74.011" transform="translate(5998.471 -1805.437)" fill="none" stroke="#000" stroke-linecap="round" stroke-linejoin="round" stroke-width="10.104" stroke-dasharray="25.357 25.357"/>
      <line id="Line_126" data-name="Line 126" x1="28.639" y2="74.011" transform="translate(6037.471 -1805.437)" fill="none" stroke="#000" stroke-linecap="round" stroke-linejoin="round" stroke-width="10.104" stroke-dasharray="25.357 25.357"/>
      <line id="Line_127" data-name="Line 127" x1="29.333" y2="72.011" transform="translate(6075.471 -1805.437)" fill="none" stroke="#000" stroke-linecap="round" stroke-linejoin="round" stroke-width="10.104" stroke-dasharray="25.357 25.357"/>
    </g>
    <path id="Path_129" data-name="Path 129" d="M5135.5,530.024a46.612,46.612,0,0,0-65.428,66.379" transform="translate(-2960.756 -4346.004)" fill="none" stroke="#000" stroke-linecap="round" stroke-linejoin="round" stroke-width="10.104"/>
    <line id="Line_198" data-name="Line 198" y1="26.4" transform="translate(2142.726 -3880.402)" fill="none" stroke="#000" stroke-linecap="round" stroke-linejoin="round" stroke-width="10.104"/>
    <line id="Line_199" data-name="Line 199" y1="18.667" x2="18.667" transform="translate(2193.564 -3851.612)" fill="none" stroke="#000" stroke-linecap="round" stroke-linejoin="round" stroke-width="10.104"/>
    <line id="Line_200" data-name="Line 200" x1="18.667" y2="18.667" transform="translate(2073.22 -3731.268)" fill="none" stroke="#000" stroke-linecap="round" stroke-linejoin="round" stroke-width="10.104"/>
    <line id="Line_201" data-name="Line 201" x1="26.4" transform="translate(2044.429 -3782.106)" fill="none" stroke="#000" stroke-linecap="round" stroke-linejoin="round" stroke-width="10.104"/>
    <line id="Line_202" data-name="Line 202" x1="18.667" y1="18.667" transform="translate(2073.22 -3851.612)" fill="none" stroke="#000" stroke-linecap="round" stroke-linejoin="round" stroke-width="10.104"/>
  </g>
</svg>
