<svg xmlns="http://www.w3.org/2000/svg" viewBox="0 0 227.48 167.291">
  <g id="Group_69" data-name="Group 69" transform="translate(-2116.622 5491.172)">
    <g id="Group_25" data-name="Group 25" transform="translate(-3815.971 -3598.365)">
      <path id="Path_72" data-name="Path 72" d="M4846.327,627.867a33.689,33.689,0,0,0,1.011-67.362,28.454,28.454,0,0,0-45.4-27.766,50.316,50.316,0,0,0-97.368,17.82c0,.049,0,.1,0,.148-1.08-.091-2.17-.148-3.274-.148a38.654,38.654,0,0,0,0,77.308" transform="translate(1275 -2388.004)" fill="none" stroke="#000" stroke-linecap="round" stroke-linejoin="round" stroke-width="10.104"/>
      <line id="Line_125" data-name="Line 125" x1="30.946" y2="73.302" transform="translate(5996.471 -1805.437)" fill="none" stroke="#000" stroke-linecap="round" stroke-linejoin="round" stroke-width="10.104" stroke-dasharray="25.357 25.357"/>
      <line id="Line_126" data-name="Line 126" x1="28.639" y2="70.302" transform="translate(6037.471 -1805.437)" fill="none" stroke="#000" stroke-linecap="round" stroke-linejoin="round" stroke-width="10.104" stroke-dasharray="25.357 25.357"/>
      <line id="Line_127" data-name="Line 127" x1="30.333" y2="73.302" transform="translate(6074.471 -1805.437)" fill="none" stroke="#000" stroke-linecap="round" stroke-linejoin="round" stroke-width="10.104" stroke-dasharray="25.357 25.357"/>
    </g>
  </g>
</svg>
