<svg xmlns="http://www.w3.org/2000/svg" viewBox="0 0 227.48 173.036">
  <g id="Group_73" data-name="Group 73" transform="translate(-1674.307 5096.172)">
    <path id="Path_72" data-name="Path 72" d="M4846.327,627.867a33.689,33.689,0,0,0,1.011-67.362,28.454,28.454,0,0,0-45.4-27.766,50.316,50.316,0,0,0-97.368,17.82c0,.049,0,.1,0,.148-1.08-.091-2.17-.148-3.274-.148a38.654,38.654,0,0,0,0,77.308" transform="translate(-2983.285 -5591.369)" fill="none" stroke="#000" stroke-linecap="round" stroke-linejoin="round" stroke-width="10.104"/>
    <line id="Line_125" data-name="Line 125" x1="27.632" y2="69.302" transform="translate(1742.5 -5008.802)" fill="none" stroke="#000" stroke-linecap="round" stroke-linejoin="round" stroke-width="10.104" stroke-dasharray="25.357 25.357"/>
    <line id="Line_126" data-name="Line 126" x1="26.325" y2="72.302" transform="translate(1781.5 -5008.802)" fill="none" stroke="#000" stroke-linecap="round" stroke-linejoin="round" stroke-width="10.104" stroke-dasharray="25.357 25.357"/>
    <line id="Line_190" data-name="Line 190" x1="7" y2="16" transform="translate(1833.258 -4996.5)" fill="none" stroke="#000" stroke-linecap="round" stroke-width="10"/>
    <g id="Group_30" data-name="Group 30" transform="translate(-1069.842 -3151.764) rotate(21)">
      <line id="Line_187" data-name="Line 187" y2="32.099" transform="translate(2059.996 -2725.789)" fill="none" stroke="#000" stroke-linecap="round" stroke-linejoin="round" stroke-width="8"/>
      <line id="Line_188" data-name="Line 188" x2="27.264" y2="16.941" transform="translate(2046.364 -2718.21)" fill="none" stroke="#000" stroke-linecap="round" stroke-linejoin="round" stroke-width="8"/>
      <line id="Line_189" data-name="Line 189" y1="16.941" x2="27.264" transform="translate(2046.364 -2718.21)" fill="none" stroke="#000" stroke-linecap="round" stroke-linejoin="round" stroke-width="8"/>
    </g>
  </g>
</svg>
