<svg xmlns="http://www.w3.org/2000/svg" viewBox="0 0 306.382 252.352">
  <g id="Group_67" data-name="Group 67" transform="translate(-1643.355 3894.119)">
    <g id="Group_42" data-name="Group 42" transform="translate(-4588.401 -2669.52)">
      <path id="Path_73" data-name="Path 73" d="M5224.394,1370.975a33.688,33.688,0,0,0,1.011-67.362,28.454,28.454,0,0,0-45.4-27.766,50.315,50.315,0,0,0-97.367,17.819c0,.05,0,.1,0,.149-1.081-.091-2.171-.149-3.274-.149a38.654,38.654,0,1,0,0,77.309" transform="translate(1275 -2388.004)" fill="none" stroke="#fff" stroke-linecap="round" stroke-linejoin="round" stroke-width="10.104"/>
      <line id="Line_128" data-name="Line 128" x1="25.423" y2="61.242" transform="translate(6371.166 -1040.093)" fill="none" stroke="#fff" stroke-linecap="round" stroke-linejoin="round" stroke-width="10.104" stroke-dasharray="25.357 25.357"/>
      <line id="Line_129" data-name="Line 129" x1="23.929" y2="57.642" transform="translate(6411.354 -1040.093)" fill="none" stroke="#fff" stroke-linecap="round" stroke-linejoin="round" stroke-width="10.104" stroke-dasharray="25.357 25.357"/>
      <path id="Path_74" data-name="Path 74" d="M5198.976,1347.911l-9.855,23.742-14.073,33.9" transform="translate(1275 -2388.004)" fill="none" stroke="#fff" stroke-linecap="round" stroke-linejoin="round" stroke-width="10.104" stroke-dasharray="25.357 25.357"/>
    </g>
    <path id="Path_128" data-name="Path 128" d="M5135.5,530.024a46.612,46.612,0,0,0-65.428,66.379" transform="translate(-3356.779 -4354.668)" fill="none" stroke="#fff" stroke-linecap="round" stroke-linejoin="round" stroke-width="10.104"/>
    <line id="Line_193" data-name="Line 193" y1="26.4" transform="translate(1746.703 -3889.067)" fill="none" stroke="#fff" stroke-linecap="round" stroke-linejoin="round" stroke-width="10.104"/>
    <line id="Line_194" data-name="Line 194" y1="18.667" x2="18.667" transform="translate(1797.542 -3860.276)" fill="none" stroke="#fff" stroke-linecap="round" stroke-linejoin="round" stroke-width="10.104"/>
    <line id="Line_195" data-name="Line 195" x1="18.667" y2="18.667" transform="translate(1677.198 -3739.933)" fill="none" stroke="#fff" stroke-linecap="round" stroke-linejoin="round" stroke-width="10.104"/>
    <line id="Line_196" data-name="Line 196" x1="26.4" transform="translate(1648.407 -3790.771)" fill="none" stroke="#fff" stroke-linecap="round" stroke-linejoin="round" stroke-width="10.104"/>
    <line id="Line_197" data-name="Line 197" x1="18.667" y1="18.667" transform="translate(1677.198 -3860.276)" fill="none" stroke="#fff" stroke-linecap="round" stroke-linejoin="round" stroke-width="10.104"/>
  </g>
</svg>
