<svg xmlns="http://www.w3.org/2000/svg" viewBox="0 0 227.481 177.451">
  <g id="Group_24" data-name="Group 24" transform="translate(-6310.657 1149.699)">
    <path id="Path_73" data-name="Path 73" d="M5224.394,1370.975a33.688,33.688,0,0,0,1.011-67.362,28.454,28.454,0,0,0-45.4-27.766,50.315,50.315,0,0,0-97.367,17.819c0,.05,0,.1,0,.149-1.081-.091-2.171-.149-3.274-.149a38.654,38.654,0,1,0,0,77.309" transform="translate(1275 -2388.004)" fill="none" stroke="#fff" stroke-linecap="round" stroke-linejoin="round" stroke-width="10.104"/>
    <line id="Line_128" data-name="Line 128" x1="25.423" y2="61.242" transform="translate(6371.166 -1040.093)" fill="none" stroke="#fff" stroke-linecap="round" stroke-linejoin="round" stroke-width="10.104" stroke-dasharray="25.357 25.357"/>
    <line id="Line_129" data-name="Line 129" x1="23.929" y2="57.642" transform="translate(6411.354 -1040.093)" fill="none" stroke="#fff" stroke-linecap="round" stroke-linejoin="round" stroke-width="10.104" stroke-dasharray="25.357 25.357"/>
    <path id="Path_74" data-name="Path 74" d="M5198.976,1347.911l-9.855,23.742-14.073,33.9" transform="translate(1275 -2388.004)" fill="none" stroke="#fff" stroke-linecap="round" stroke-linejoin="round" stroke-width="10.104" stroke-dasharray="25.357 25.357"/>
  </g>
</svg>
