<svg xmlns="http://www.w3.org/2000/svg" viewBox="0 0 238.407 219.054">
  <g id="Group_64" data-name="Group 64" transform="translate(-1328.711 4256.12)">
    <path id="Path_127" data-name="Path 127" d="M5610.845,198.764a29.884,29.884,0,0,0-47.684-29.162A52.845,52.845,0,0,0,5460.9,188.317c0,.052,0,.1,0,.156-1.135-.1-2.28-.156-3.439-.156a40.6,40.6,0,0,0,0,81.195h152.32a35.382,35.382,0,0,0,1.062-70.748Z" transform="translate(-4083.104 -4386.547)" fill="none" stroke="#fff" stroke-linecap="round" stroke-linejoin="round" stroke-width="10.104"/>
    <line id="Line_192" data-name="Line 192" x2="136.692" transform="translate(1379.763 -4088.036)" fill="none" stroke="#fff" stroke-linecap="round" stroke-width="10"/>
    <g id="Group_41" data-name="Group 41" transform="translate(-15.737 -1350)">
      <g id="Group_38" data-name="Group 38" transform="translate(1419 -2712.117)">
        <line id="Line_94" data-name="Line 94" y2="20.067" transform="translate(8.522 0)" fill="none" stroke="#fff" stroke-linecap="round" stroke-linejoin="round" stroke-width="5.1"/>
        <line id="Line_95" data-name="Line 95" x2="17.044" y2="10.591" transform="translate(0 4.738)" fill="none" stroke="#fff" stroke-linecap="round" stroke-linejoin="round" stroke-width="5.1"/>
        <line id="Line_96" data-name="Line 96" y1="10.591" x2="17.044" transform="translate(0 4.738)" fill="none" stroke="#fff" stroke-linecap="round" stroke-linejoin="round" stroke-width="5.1"/>
      </g>
      <g id="Group_39" data-name="Group 39" transform="translate(1452.473 -2717.595)">
        <line id="Line_94-2" data-name="Line 94" y2="20.067" transform="translate(8.522)" fill="none" stroke="#fff" stroke-linecap="round" stroke-linejoin="round" stroke-width="5.1"/>
        <line id="Line_95-2" data-name="Line 95" x2="17.044" y2="10.591" transform="translate(0 4.738)" fill="none" stroke="#fff" stroke-linecap="round" stroke-linejoin="round" stroke-width="5.1"/>
        <line id="Line_96-2" data-name="Line 96" y1="10.591" x2="17.044" transform="translate(0 4.738)" fill="none" stroke="#fff" stroke-linecap="round" stroke-linejoin="round" stroke-width="5.1"/>
      </g>
      <g id="Group_40" data-name="Group 40" transform="translate(1485.946 -2709.683)">
        <line id="Line_94-3" data-name="Line 94" y2="20.067" transform="translate(8.522)" fill="none" stroke="#fff" stroke-linecap="round" stroke-linejoin="round" stroke-width="5.1"/>
        <line id="Line_95-3" data-name="Line 95" x2="17.044" y2="10.591" transform="translate(0 4.738)" fill="none" stroke="#fff" stroke-linecap="round" stroke-linejoin="round" stroke-width="5.1"/>
        <line id="Line_96-3" data-name="Line 96" y1="10.591" x2="17.044" transform="translate(0 4.738)" fill="none" stroke="#fff" stroke-linecap="round" stroke-linejoin="round" stroke-width="5.1"/>
      </g>
    </g>
  </g>
</svg>
