<svg xmlns="http://www.w3.org/2000/svg" viewBox="0 0 226.871 173.338">
  <g id="Group_57" data-name="Group 57" transform="translate(-1319.778 2641.085)">
    <path id="Path_81" data-name="Path 81" d="M5602.25,998.193a33.594,33.594,0,0,0,1.008-67.173,28.374,28.374,0,0,0-45.274-27.688,50.174,50.174,0,0,0-97.094,17.77c0,.049,0,.1,0,.147-1.077-.09-2.164-.147-3.265-.147a38.546,38.546,0,0,0,0,77.091" transform="translate(-4094.252 -3506.966)" fill="rgba(84,73,73,0)" stroke="#000" stroke-linecap="round" stroke-linejoin="round" stroke-width="10.104"/>
    <path id="Path_82" data-name="Path 82" d="M5504.483,927.009h35.277l-25.512,40.018h25.512l-61.64,67.14,23.139-51.588H5480.4Z" transform="translate(-4094.252 -3506.966)" fill="rgba(84,73,73,0)" stroke="#000" stroke-linecap="round" stroke-linejoin="round" stroke-width="10.104"/>
    <circle id="Ellipse_7" data-name="Ellipse 7" cx="12" cy="12" r="12" transform="translate(1478 -2497)"/>
    <circle id="Ellipse_8" data-name="Ellipse 8" cx="12" cy="12" r="12" transform="translate(1436 -2501)"/>
  </g>
</svg>
