<svg xmlns="http://www.w3.org/2000/svg" viewBox="0 0 226.871 199.085">
  <g id="Group_58" data-name="Group 58" transform="translate(-1671.545 2641.085)">
    <path id="Path_135" data-name="Path 135" d="M5602.25,998.193a33.594,33.594,0,0,0,1.008-67.173,28.374,28.374,0,0,0-45.274-27.688,50.174,50.174,0,0,0-97.094,17.77c0,.049,0,.1,0,.147-1.077-.09-2.164-.147-3.265-.147a38.546,38.546,0,0,0,0,77.091" transform="translate(-3742.485 -3506.966)" fill="none" stroke="#000" stroke-linecap="round" stroke-linejoin="round" stroke-width="10.104"/>
    <path id="Path_136" data-name="Path 136" d="M5504.483,927.009h35.277l-25.512,40.018h25.512l-61.64,67.14,23.139-51.588H5480.4Z" transform="translate(-3742.485 -3506.966)" fill="none" stroke="#000" stroke-linecap="round" stroke-linejoin="round" stroke-width="10.104"/>
    <circle id="Ellipse_9" data-name="Ellipse 9" cx="12" cy="12" r="12" transform="translate(1831.156 -2498)"/>
    <g id="Ellipse_12" data-name="Ellipse 12" transform="translate(1803.288 -2466)" stroke="#000" stroke-width="1">
      <circle cx="12" cy="12" r="12" stroke="none"/>
      <circle cx="12" cy="12" r="11.5" fill="none"/>
    </g>
    <circle id="Ellipse_13" data-name="Ellipse 13" cx="12" cy="12" r="12" transform="translate(1843.156 -2466)"/>
    <circle id="Ellipse_11" data-name="Ellipse 11" cx="12" cy="12" r="12" transform="translate(1758.602 -2474)"/>
    <circle id="Ellipse_10" data-name="Ellipse 10" cx="12" cy="12" r="12" transform="translate(1792.767 -2509)"/>
  </g>
</svg>
