<?xml version="1.0" encoding="utf-8"?>
<!-- Generator: Adobe Illustrator 27.8.1, SVG Export Plug-In . SVG Version: 6.00 Build 0)  -->
<svg version="1.1" id="Layer_1" xmlns="http://www.w3.org/2000/svg" xmlns:xlink="http://www.w3.org/1999/xlink" x="0px" y="0px"
	 viewBox="0 0 226.9 199.1" style="enable-background:new 0 0 226.9 199.1;" xml:space="preserve">
<style type="text/css">
	.st0{fill:none;stroke:#FFFFFF;stroke-width:10.104;stroke-linecap:round;stroke-linejoin:round;}
	.st1{fill:#FFFFFF;}
	.st2{fill:#FFFFFF;stroke:#FFFFFF;}
</style>
<g id="Group_58" transform="translate(-1671.545 2641.085)">
	<path id="Path_135" class="st0" d="M1859.8-2508.8c18.6,0,33.6-15,33.6-33.6c0-18.2-14.4-33-32.6-33.6c2.9-15.4-7.2-30.2-22.6-33.2
		c-8-1.5-16.2,0.5-22.7,5.5c-9.8-25.9-38.8-39-64.7-29.1c-19.5,7.4-32.4,26.1-32.4,46.9c0,0,0,0.1,0,0.1c-1.1-0.1-2.2-0.1-3.3-0.1
		c-21.3,0.1-38.5,17.5-38.3,38.7c0.1,21.1,17.2,38.2,38.3,38.3"/>
	<path id="Path_136" class="st0" d="M1762-2580h35.3l-25.5,40h25.5l-61.6,67.1l23.1-51.6h-20.9L1762-2580z"/>
	<circle id="Ellipse_9" class="st1" cx="1843.2" cy="-2486" r="12"/>
	<g id="Ellipse_12" transform="translate(1803.288 -2466)">
		<circle class="st1" cx="12" cy="12" r="12"/>
		<circle class="st2" cx="12" cy="12" r="11.5"/>
	</g>
	<circle id="Ellipse_13" class="st1" cx="1855.2" cy="-2454" r="12"/>
	<circle id="Ellipse_11" class="st1" cx="1770.6" cy="-2462" r="12"/>
	<circle id="Ellipse_10" class="st1" cx="1804.8" cy="-2497" r="12"/>
</g>
</svg>
